<svg width="135" height="40" viewBox="0 0 135 40" fill="none" xmlns="http://www.w3.org/2000/svg">
<path d="M130 40H5C2.25 40 0 37.75 0 35V5C0 2.25 2.25 0 5 0H130C132.75 0 135 2.25 135 5V35C135 37.75 132.75 40 130 40Z" fill="black"/>
<path d="M130 0.8C132.32 0.8 134.2 2.68 134.2 5V35C134.2 37.32 132.32 39.2 130 39.2H5C2.68 39.2 0.8 37.32 0.8 35V5C0.8 2.68 2.68 0.8 5 0.8H130ZM130 0H5C2.25 0 0 2.25 0 5V35C0 37.75 2.25 40 5 40H130C132.75 40 135 37.75 135 35V5C135 2.25 132.75 0 130 0Z" fill="#A6A6A6"/>
<path d="M47.4201 10.2401C47.4201 11.0801 47.1701 11.7501 46.6701 12.2401C46.1101 12.8301 45.3701 13.1301 44.4701 13.1301C43.6001 13.1301 42.8701 12.8301 42.2601 12.2301C41.6501 11.6301 41.3501 10.8801 41.3501 10.0001C41.3501 9.11012 41.6501 8.37012 42.2601 7.77012C42.8701 7.17012 43.6001 6.87012 44.4701 6.87012C44.9001 6.87012 45.3101 6.95012 45.7001 7.12012C46.0901 7.29012 46.4001 7.51012 46.6401 7.79012L46.1101 8.32012C45.7101 7.85012 45.1701 7.61012 44.4701 7.61012C43.8401 7.61012 43.2901 7.83012 42.8301 8.28012C42.3701 8.72012 42.1401 9.30012 42.1401 10.0101C42.1401 10.7201 42.3701 11.3001 42.8301 11.7401C43.2901 12.1801 43.8401 12.4101 44.4701 12.4101C45.1401 12.4101 45.7001 12.1901 46.1501 11.7401C46.4401 11.4501 46.6101 11.0401 46.6501 10.5201H44.4701V9.80012H47.3801C47.4001 9.95012 47.4201 10.1001 47.4201 10.2401ZM52.0301 7.74012H49.3001V9.64012H51.7601V10.3601H49.3001V12.2601H52.0301V13.0001H48.5301V7.00012H52.0301V7.74012ZM55.2801 13.0001H54.5101V7.74012H52.8301V7.00012H56.9501V7.74012H55.2701V13.0001H55.2801ZM59.9401 13.0001V7.00012H60.7101V13.0001H59.9401ZM64.1301 13.0001H63.3601V7.74012H61.6801V7.00012H65.8001V7.74012H64.1201V13.0001H64.1301ZM73.6101 12.2201C73.0201 12.8301 72.2901 13.1301 71.4101 13.1301C70.5301 13.1301 69.8001 12.8301 69.2101 12.2201C68.6201 11.6101 68.3301 10.8701 68.3301 10.0001C68.3301 9.13012 68.6201 8.38012 69.2101 7.78012C69.8001 7.17012 70.5301 6.87012 71.4101 6.87012C72.2801 6.87012 73.0101 7.17012 73.6101 7.78012C74.2001 8.39012 74.5001 9.13012 74.5001 10.0001C74.4901 10.8801 74.2001 11.6201 73.6101 12.2201ZM69.7801 11.7201C70.2201 12.1701 70.7701 12.3901 71.4101 12.3901C72.0501 12.3901 72.6001 12.1701 73.0401 11.7201C73.4801 11.2701 73.7101 10.7001 73.7101 10.0001C73.7101 9.30012 73.4901 8.73012 73.0401 8.28012C72.6001 7.83012 72.0501 7.61012 71.4101 7.61012C70.7701 7.61012 70.2201 7.83012 69.7801 8.28012C69.3401 8.73012 69.1101 9.30012 69.1101 10.0001C69.1101 10.7001 69.3401 11.2701 69.7801 11.7201ZM75.5801 13.0001V7.00012H76.5201L79.4401 11.6701H79.4701L79.4401 10.5101V7.00012H80.2101V13.0001H79.4101L76.3601 8.11012H76.3301L76.3601 9.27012V13.0001H75.5801Z" fill="white" stroke="white" stroke-width="0.2"/>
<path d="M68.14 21.7498C65.79 21.7498 63.87 23.5398 63.87 25.9998C63.87 28.4498 65.79 30.2498 68.14 30.2498C70.49 30.2498 72.41 28.4498 72.41 25.9998C72.41 23.5398 70.49 21.7498 68.14 21.7498ZM68.14 28.5798C66.85 28.5798 65.74 27.5198 65.74 25.9998C65.74 24.4698 66.85 23.4198 68.14 23.4198C69.43 23.4198 70.54 24.4698 70.54 25.9998C70.54 27.5198 69.42 28.5798 68.14 28.5798ZM58.82 21.7498C56.47 21.7498 54.55 23.5398 54.55 25.9998C54.55 28.4498 56.47 30.2498 58.82 30.2498C61.17 30.2498 63.09 28.4498 63.09 25.9998C63.09 23.5398 61.17 21.7498 58.82 21.7498ZM58.82 28.5798C57.53 28.5798 56.42 27.5198 56.42 25.9998C56.42 24.4698 57.53 23.4198 58.82 23.4198C60.11 23.4198 61.22 24.4698 61.22 25.9998C61.22 27.5198 60.11 28.5798 58.82 28.5798ZM47.74 23.0598V24.8598H52.06C51.93 25.8698 51.59 26.6198 51.08 27.1298C50.45 27.7598 49.47 28.4498 47.75 28.4498C45.09 28.4498 43.01 26.3098 43.01 23.6498C43.01 20.9898 45.09 18.8498 47.75 18.8498C49.18 18.8498 50.23 19.4098 51 20.1398L52.27 18.8698C51.19 17.8398 49.76 17.0498 47.74 17.0498C44.1 17.0498 41.04 20.0098 41.04 23.6598C41.04 27.2998 44.1 30.2698 47.74 30.2698C49.71 30.2698 51.19 29.6298 52.35 28.4198C53.54 27.2298 53.91 25.5498 53.91 24.1998C53.91 23.7798 53.88 23.3898 53.81 23.0698H47.74V23.0598ZM93.05 24.4598C92.7 23.5098 91.62 21.7498 89.41 21.7498C87.22 21.7498 85.4 23.4698 85.4 25.9998C85.4 28.3798 87.2 30.2498 89.62 30.2498C91.57 30.2498 92.7 29.0598 93.16 28.3698L91.71 27.3998C91.23 28.1098 90.57 28.5798 89.62 28.5798C88.67 28.5798 87.99 28.1398 87.56 27.2898L93.25 24.9398L93.05 24.4598ZM87.25 25.8798C87.2 24.2398 88.52 23.3998 89.47 23.3998C90.21 23.3998 90.84 23.7698 91.05 24.2998L87.25 25.8798ZM82.63 29.9998H84.5V17.4998H82.63V29.9998ZM79.57 22.6998H79.5C79.08 22.1998 78.28 21.7498 77.26 21.7498C75.13 21.7498 73.18 23.6198 73.18 26.0198C73.18 28.3998 75.13 30.2598 77.26 30.2598C78.27 30.2598 79.08 29.8098 79.5 29.2898H79.56V29.8998C79.56 31.5298 78.69 32.3998 77.29 32.3998C76.15 32.3998 75.44 31.5798 75.15 30.8898L73.52 31.5698C73.99 32.6998 75.23 34.0798 77.29 34.0798C79.48 34.0798 81.33 32.7898 81.33 29.6498V22.0098H79.56V22.6998H79.57ZM77.42 28.5798C76.13 28.5798 75.05 27.4998 75.05 26.0198C75.05 24.5198 76.13 23.4298 77.42 23.4298C78.69 23.4298 79.69 24.5298 79.69 26.0198C79.7 27.4998 78.7 28.5798 77.42 28.5798ZM101.81 17.4998H97.34V29.9998H99.21V25.2598H101.82C103.89 25.2598 105.92 23.7598 105.92 21.3798C105.92 18.9998 103.87 17.4998 101.81 17.4998ZM101.85 23.5198H99.2V19.2298H101.85C103.25 19.2298 104.04 20.3898 104.04 21.3698C104.04 22.3498 103.25 23.5198 101.85 23.5198ZM113.39 21.7298C112.04 21.7298 110.64 22.3298 110.06 23.6398L111.72 24.3298C112.07 23.6398 112.73 23.4098 113.42 23.4098C114.38 23.4098 115.37 23.9898 115.38 25.0198V25.1498C115.04 24.9598 114.32 24.6698 113.43 24.6698C111.64 24.6698 109.83 25.6498 109.83 27.4798C109.83 29.1498 111.29 30.2298 112.93 30.2298C114.18 30.2298 114.88 29.6698 115.31 29.0098H115.37V29.9798H117.17V25.1898C117.18 22.9698 115.52 21.7298 113.39 21.7298ZM113.16 28.5798C112.55 28.5798 111.7 28.2698 111.7 27.5198C111.7 26.5598 112.76 26.1898 113.68 26.1898C114.5 26.1898 114.89 26.3698 115.38 26.6098C115.24 27.7598 114.24 28.5798 113.16 28.5798ZM123.74 21.9998L121.6 27.4198H121.54L119.32 21.9998H117.31L120.64 29.5798L118.74 33.7898H120.69L125.82 21.9998H123.74ZM106.94 29.9998H108.81V17.4998H106.94V29.9998Z" fill="white"/>
<path d="M10.44 7.5407C10.15 7.8507 9.97998 8.3307 9.97998 8.9407V31.0607C9.97998 31.6807 10.15 32.1607 10.44 32.4607L10.51 32.5307L22.9 20.1507V19.8507L10.51 7.4707L10.44 7.5407Z" fill="url(#paint0_linear_1124_4552)"/>
<path d="M27.0299 24.2807L22.8999 20.1507V19.8507L27.0299 15.7207L27.1199 15.7707L32.0099 18.5507C33.4099 19.3407 33.4099 20.6407 32.0099 21.4407L27.1199 24.2207L27.0299 24.2807Z" fill="url(#paint1_linear_1124_4552)"/>
<path d="M27.1199 24.22L22.8999 20L10.4399 32.46C10.8999 32.95 11.6599 33.01 12.5199 32.52L27.1199 24.22Z" fill="url(#paint2_linear_1124_4552)"/>
<path d="M27.1199 15.7805L12.5099 7.48048C11.6499 6.99048 10.8899 7.05048 10.4299 7.54048L22.8999 20.0005L27.1199 15.7805Z" fill="url(#paint3_linear_1124_4552)"/>
<path opacity="0.2" d="M27.0299 24.1309L12.5099 32.3809C11.6999 32.8409 10.9699 32.8109 10.5099 32.3909L10.4399 32.4609L10.5099 32.5309C10.9799 32.9509 11.6999 32.9809 12.5099 32.5209L27.1199 24.2209L27.0299 24.1309Z" fill="black"/>
<path opacity="0.12" d="M10.44 32.3209C10.15 32.0109 9.97998 31.5309 9.97998 30.9209V31.0709C9.97998 31.6909 10.15 32.1709 10.44 32.4709L10.51 32.4009L10.44 32.3209Z" fill="black"/>
<path opacity="0.12" d="M32.01 21.3L27.02 24.13L27.11 24.22L32 21.44C32.7 21.04 33.05 20.52 33.05 20C33 20.47 32.65 20.94 32.01 21.3Z" fill="black"/>
<path opacity="0.25" d="M12.51 7.62043L32.01 18.7004C32.64 19.0604 33 19.5204 33.06 20.0004C33.06 19.4804 32.71 18.9504 32.01 18.5604L12.51 7.48043C11.11 6.69043 9.96997 7.35043 9.96997 8.95043V9.10043C9.96997 7.49043 11.12 6.83043 12.51 7.62043Z" fill="white"/>
<defs>
<linearGradient id="paint0_linear_1124_4552" x1="17.8647" y1="8.71042" x2="7.24299" y2="19.332" gradientUnits="userSpaceOnUse">
<stop stop-color="#00A0FF"/>
<stop offset="0.00657" stop-color="#00A1FF"/>
<stop offset="0.2601" stop-color="#00BEFF"/>
<stop offset="0.5122" stop-color="#00D2FF"/>
<stop offset="0.7604" stop-color="#00DFFF"/>
<stop offset="1" stop-color="#00E3FF"/>
</linearGradient>
<linearGradient id="paint1_linear_1124_4552" x1="33.8343" y1="20.0021" x2="9.63744" y2="20.0021" gradientUnits="userSpaceOnUse">
<stop stop-color="#FFE000"/>
<stop offset="0.4087" stop-color="#FFBD00"/>
<stop offset="0.7754" stop-color="#FFA500"/>
<stop offset="1" stop-color="#FF9C00"/>
</linearGradient>
<linearGradient id="paint2_linear_1124_4552" x1="24.8269" y1="23.973" x2="6.68497" y2="42.1149" gradientUnits="userSpaceOnUse">
<stop stop-color="#FF3A44"/>
<stop offset="1" stop-color="#C31162"/>
</linearGradient>
<linearGradient id="paint3_linear_1124_4552" x1="7.29722" y1="5.62014" x2="15.3947" y2="13.7177" gradientUnits="userSpaceOnUse">
<stop stop-color="#32A071"/>
<stop offset="0.0685" stop-color="#2DA771"/>
<stop offset="0.4762" stop-color="#15CF74"/>
<stop offset="0.8009" stop-color="#06E775"/>
<stop offset="1" stop-color="#00F076"/>
</linearGradient>
</defs>
</svg>
