<svg width="111" height="63" viewBox="0 0 111 63" fill="none" xmlns="http://www.w3.org/2000/svg">
<path d="M13.3725 17.3973C10.2257 17.3973 8.12776 18.881 8.12776 21.1865C8.12776 26.9384 17.4994 24.3822 17.4538 29.3809C17.4538 31.2527 15.6979 32.4396 12.9618 32.4396C11.092 32.4396 9.06266 31.6177 7.76272 30.2711L7.26113 31.1156C8.65199 32.4853 10.8182 33.4211 12.9388 33.4211C16.2681 33.4211 18.4796 31.8231 18.4796 29.3579C18.5252 23.469 9.15357 25.9799 9.15357 21.1178C9.15357 19.4518 10.7952 18.4015 13.3261 18.4015C14.6943 18.4015 16.3133 18.7896 17.499 19.5658L17.9323 18.6983C16.7467 17.9221 14.9911 17.3973 13.3725 17.3973ZM24.8925 21.4832C21.5406 21.4832 19.101 23.9711 19.101 27.4635C19.101 30.9559 21.5406 33.4211 24.8925 33.4211C26.785 33.4211 28.4043 32.7137 29.4984 31.5267L28.9512 30.9103C27.9936 31.9601 26.5568 32.5536 24.9382 32.5536C22.1791 32.5536 20.1728 30.6135 20.0359 27.7146H30.4107C30.4793 24.0398 28.3813 21.4832 24.8925 21.4832ZM20.0585 26.87C20.2867 24.1765 22.2247 22.3507 24.8925 22.3507C27.606 22.3507 29.3619 24.1768 29.5444 26.87H20.0585ZM42.2954 21.5062H41.3379V24.6106C40.4486 22.6475 38.6018 21.4379 36.2531 21.4379C32.9012 21.4379 30.4842 23.9488 30.4842 27.4639C30.4842 30.9563 32.9012 33.4672 36.2757 33.4672C38.6018 33.4672 40.4486 32.2576 41.3379 30.2945V43.1738H42.2954V21.5062ZM36.3896 32.5766C33.4937 32.5766 31.4417 30.4308 31.4187 27.4635C31.4417 24.5189 33.5163 22.3507 36.3896 22.3507C39.2626 22.3507 41.3375 24.4966 41.3375 27.4635C41.3375 30.4308 39.2626 32.5766 36.3896 32.5766ZM54.9556 21.5062H54.0207V27.3268C54.0207 30.4312 52.3334 32.3943 49.4604 32.4626C47.0661 32.4626 45.6526 31.0246 45.6526 28.5821V21.5062H44.7177V28.7648C44.7177 31.6868 46.3823 33.4215 49.2553 33.4215C51.604 33.3985 53.2683 32.2802 54.0207 30.2258V33.3985H54.9556V21.5062ZM62.1888 21.4832C58.8369 21.4832 56.3973 23.9711 56.3973 27.4635C56.3973 30.9559 58.8369 33.4211 62.1888 33.4211C64.0813 33.4211 65.7006 32.7137 66.7947 31.5267L66.2475 30.9103C65.29 31.9601 63.8531 32.5536 62.2345 32.5536C59.4754 32.5536 57.4691 30.6135 57.3322 27.7146H67.707C67.7756 24.0398 65.6776 21.4832 62.1888 21.4832ZM57.3548 26.87C57.583 24.1765 59.521 22.3507 62.1888 22.3507C64.9023 22.3507 66.6582 24.1768 66.8407 26.87H57.3548ZM74.8716 21.4832C72.5002 21.5289 70.813 22.5788 70.015 24.5419V21.5062H69.0574V33.3985H70.015V26.9618C70.2201 24.2225 71.9074 22.5108 74.6438 22.4421C77.0838 22.4421 78.5203 23.8801 78.5203 26.3226V33.3985H79.4778V26.1399C79.4778 23.2409 77.7676 21.4832 74.8716 21.4832ZM87.0072 31.8004C86.3917 32.2342 85.685 32.4853 85.0005 32.4853C83.7692 32.5083 83.1081 31.6864 83.1081 29.9974V22.6248H87.1441V21.803H83.1081V18.8583H82.1958V21.803H80.4629V22.6248H82.1958V30.1118C82.1958 32.3486 83.1993 33.4445 84.8866 33.4215C85.7759 33.4215 86.6195 33.1021 87.3719 32.577L87.0072 31.8004ZM88.6997 17.2603C88.2664 17.2603 87.9017 17.6254 87.9017 18.0821C87.9017 18.5616 88.2664 18.9267 88.6997 18.9267C89.133 18.9267 89.4977 18.5616 89.4977 18.0821C89.4977 17.6257 89.133 17.2603 88.6997 17.2603ZM89.1556 33.3981V21.5059H88.2207V33.3981H89.1556ZM99.5127 33.3981H100.448L100.402 25.5004C100.379 23.0352 98.8512 21.4832 96.0469 21.4832C94.2457 21.4832 92.8775 22.1454 91.4636 23.1722L91.9196 23.9027C93.1739 22.9442 94.4279 22.3504 95.91 22.3504C98.2813 22.3504 99.4444 23.5603 99.467 25.5688V26.733H95.2485C92.5121 26.733 90.8248 27.9426 90.8248 29.9284C90.8248 31.9371 92.3982 33.4208 94.7466 33.4208C96.7989 33.4208 98.4862 32.6903 99.4893 31.0469L99.5127 33.3981ZM94.8838 32.5536C92.9457 32.5536 91.7371 31.4807 91.7371 29.906C91.7371 28.3767 93.014 27.5775 95.3398 27.5775H99.4897V29.518C98.7599 31.5951 97.0953 32.5536 94.8838 32.5536ZM103.827 33.3981V16.4615H102.87V33.3981H103.827Z" fill="white"/>
<path d="M45.4251 34.0889C45.2248 34.0889 45.0646 34.2493 45.0646 34.4498C45.0646 34.6604 45.2248 34.8208 45.4251 34.8208C45.6254 34.8208 45.7856 34.6604 45.7856 34.4498C45.7856 34.2493 45.6254 34.0889 45.4251 34.0889ZM45.6254 35.9533H45.2147V41.4765C45.2147 42.3084 44.8943 42.7293 44.3335 42.7195C44.0332 42.7195 43.7225 42.609 43.4822 42.4088L43.3021 42.7596C43.6023 42.9901 43.9629 43.1205 44.3436 43.1306C45.1245 43.1306 45.6254 42.5793 45.6254 41.4465V35.9533ZM49.7412 35.9432C48.2594 35.9432 47.1678 37.0359 47.1678 38.5594C47.1678 40.103 48.2594 41.1856 49.7412 41.1856C51.233 41.1856 52.3146 40.103 52.3146 38.5594C52.3146 37.0356 51.233 35.9432 49.7412 35.9432ZM49.7412 36.3442C51.0028 36.3442 51.9043 37.2563 51.9043 38.5695C51.9043 39.8826 51.0032 40.7948 49.7412 40.7948C48.4897 40.7948 47.5781 39.8826 47.5781 38.5695C47.5781 37.2563 48.4893 36.3442 49.7412 36.3442ZM56.5202 35.9432C55.499 35.9432 54.6978 36.4746 54.3073 37.3264V33.7377H53.8869V41.1755H54.3073V39.8122C54.6978 40.6543 55.499 41.1856 56.5202 41.1856C57.9923 41.1856 59.0337 40.0929 59.0337 38.5695C59.0337 37.036 57.9822 35.9432 56.5202 35.9432ZM56.4603 40.7948C55.2088 40.7948 54.3073 39.8624 54.3073 38.5695C54.3073 37.2762 55.2085 36.334 56.4603 36.334C57.722 36.334 58.6234 37.2762 58.6234 38.5695C58.6234 39.8627 57.7223 40.7948 56.4603 40.7948ZM61.7876 35.9432C60.8663 35.9432 60.0752 36.3442 60.0752 37.2563C60.0752 39.0506 63.1593 38.3791 63.1196 39.8526C63.0896 40.5141 62.4588 40.8049 61.7277 40.8049C61.0669 40.8049 60.4357 40.5643 59.9854 40.1434L59.7952 40.4642C60.2759 40.9252 60.9767 41.186 61.7078 41.186C62.649 41.186 63.5201 40.755 63.5201 39.7825C63.5201 37.9384 60.4761 38.6298 60.4761 37.2267C60.4761 36.605 61.047 36.3246 61.7778 36.3246C62.2784 36.3246 62.7388 36.4648 63.0994 36.6953L63.2794 36.3546C62.8688 36.1039 62.3682 35.9432 61.7876 35.9432ZM64.7915 40.5343C64.6013 40.5343 64.4508 40.6846 64.4508 40.8851C64.4508 41.0957 64.601 41.2557 64.7915 41.2557C64.9817 41.2557 65.1419 41.0953 65.1419 40.8851C65.1419 40.6846 64.9817 40.5343 64.7915 40.5343ZM66.6042 40.5343C66.414 40.5343 66.2635 40.6846 66.2635 40.8851C66.2635 41.0957 66.4137 41.2557 66.6042 41.2557C66.7944 41.2557 66.9546 41.0953 66.9546 40.8851C66.9546 40.6846 66.7944 40.5343 66.6042 40.5343ZM68.4169 40.5343C68.2267 40.5343 68.0762 40.6846 68.0762 40.8851C68.0762 41.0957 68.2263 41.2557 68.4169 41.2557C68.607 41.2557 68.7673 41.0953 68.7673 40.8851C68.7673 40.6846 68.607 40.5343 68.4169 40.5343Z" fill="white"/>
<path fill-rule="evenodd" clip-rule="evenodd" d="M34.2593 29.0417C34.6484 29.4022 35.701 29.5954 36.2848 29.5947C36.8466 29.594 37.3917 29.5037 37.8933 29.2871C38.0414 29.2233 38.2162 29.1013 38.327 29.0626C38.3312 28.8098 38.2887 26.081 38.2089 25.9429C38.0208 25.6165 37.0814 25.4655 36.7268 25.4774C36.6415 25.6096 36.4979 25.6587 36.5032 25.8564C36.5087 26.0475 36.5687 26.2361 36.5474 26.4248C36.4812 26.4872 36.0493 26.8184 35.9883 26.8456C35.9974 26.6075 36.0378 26.3195 36.0619 26.0761C36.0727 25.9642 36.1127 25.8153 36.0619 25.7232C36.05 25.7013 35.8877 25.5042 35.8535 25.4903C35.7264 25.4377 35.2694 25.5384 35.1186 25.5722C34.2495 25.7665 34.346 26.0356 34.3303 26.5193C34.3053 27.2968 34.2568 28.3115 34.2593 29.0424V29.0417Z" fill="white"/>
<path d="M32.9451 28.3652V28.5305C32.9447 30.0598 34.7529 30.7739 36.3677 30.7746C36.7379 30.7746 37.0284 30.6955 37.359 30.6742C37.5746 30.9284 38.5388 32.0104 38.7648 32.2213C38.9627 32.4058 39.1459 32.5079 39.4866 32.3427C39.6802 32.2485 39.884 32.047 39.9376 31.8008C40.0143 31.4507 39.7906 31.2642 39.6416 31.1233L38.5956 30.1773C38.8181 30.0895 39.2072 29.7122 39.3389 29.5204C39.7527 28.9193 39.7701 27.9691 39.3002 27.3593C39.1285 27.1364 38.8181 26.8327 38.5039 26.6995L38.505 27.0148C38.7774 27.2463 39.0835 27.4764 39.1692 27.9311C39.2615 28.4186 39.0323 28.7728 38.7216 29.0689C37.5847 30.1522 34.9138 30.1086 33.8068 29.027C33.3432 28.5741 33.2199 27.8819 33.7504 27.3164C34.1461 26.8948 34.0785 27.1765 34.0841 26.6992C33.8291 26.7878 33.4599 27.1504 33.315 27.3212C33.1035 27.5702 32.9454 27.9335 32.9451 28.3652Z" fill="white"/>
<path fill-rule="evenodd" clip-rule="evenodd" d="M36.1106 22.5627C35.4509 22.6576 34.8803 23.2667 35.0005 24.0548C35.1022 24.7218 35.7212 25.2654 36.4872 25.1521C37.1451 25.0548 37.6993 24.4477 37.5879 23.6677C37.4924 22.9996 36.871 22.4533 36.1106 22.5627Z" fill="white"/>
<path fill-rule="evenodd" clip-rule="evenodd" d="M36.2827 28.8858L36.6982 28.3366C36.7867 28.1856 36.6718 27.6445 36.6655 27.4231C36.5739 27.4471 35.9051 27.983 35.8922 28.0012C35.7076 28.261 36.1036 28.5688 36.2827 28.8858Z" fill="white"/>
<path fill-rule="evenodd" clip-rule="evenodd" d="M35.9086 27.7477C36.0044 27.6623 36.6119 27.2351 36.6303 27.1804C36.6272 27.0862 36.6174 26.9977 36.6087 26.9042L36.5606 26.6542L36.058 27.0353C35.9246 27.1385 35.9532 27.1588 35.9358 27.3484C35.9232 27.4841 35.8954 27.6131 35.9089 27.748L35.9086 27.7477Z" fill="white"/>
</svg>
