<svg width="18" height="18" viewBox="0 0 18 18" fill="none" xmlns="http://www.w3.org/2000/svg">
<path d="M8.1665 14C4.95067 14 2.33317 11.3833 2.33317 8.16663C2.33317 4.94996 4.95067 2.33329 8.1665 2.33329C11.3823 2.33329 13.9998 4.94996 13.9998 8.16663C13.9998 11.3833 11.3823 14 8.1665 14ZM17.089 15.9108L14.0207 12.8425C15.0482 11.5591 15.6665 9.93496 15.6665 8.16663C15.6665 4.03163 12.3023 0.666626 8.1665 0.666626C4.03067 0.666626 0.666504 4.03163 0.666504 8.16663C0.666504 12.3016 4.03067 15.6666 8.1665 15.6666C9.93484 15.6666 11.5582 15.0483 12.8423 14.0208L15.9107 17.0891C16.0732 17.2516 16.2865 17.3333 16.4998 17.3333C16.7132 17.3333 16.9265 17.2516 17.089 17.0891C17.4148 16.7633 17.4148 16.2366 17.089 15.9108Z" fill="#00B6B4"/>
</svg>
