<svg width="28" height="26" viewBox="0 0 28 26" fill="none" xmlns="http://www.w3.org/2000/svg">
<path d="M26.8263 0.241144C27.1837 0.490477 27.3957 0.898477 27.3957 1.33314V22.6665C27.3957 23.1011 27.1837 23.5091 26.8263 23.7585C26.5997 23.9171 26.3317 23.9998 26.0623 23.9998C25.909 23.9998 25.7557 23.9731 25.6063 23.9198L11.1597 18.6665H10.0623V23.9998C10.0623 24.7358 9.46634 25.3331 8.729 25.3331H4.729C3.99167 25.3331 3.39567 24.7358 3.39567 23.9998V18.6665H2.06234C1.325 18.6665 0.729004 18.0691 0.729004 17.3331V6.66648C0.729004 5.92914 1.325 5.33314 2.06234 5.33314H11.1597L25.6063 0.0798106C26.0157 -0.0681894 26.4717 -0.0095227 26.8263 0.241144ZM24.729 20.7625V3.23581L12.729 7.59981V16.3998L24.729 20.7625ZM3.39567 15.9998H10.0623V7.99981H3.39567V15.9998ZM6.06234 22.6665H7.39567V18.6665H6.06234V22.6665Z" fill="#00B6B4"/>
</svg>
