<svg width="120" height="40" viewBox="0 0 120 40" fill="none" xmlns="http://www.w3.org/2000/svg">
<g clip-path="url(#clip0_1124_4535)">
<path d="M110.135 0H9.535C9.168 0 8.805 0 8.44 0.002C8.134 0.004 7.83 0.01 7.521 0.015C6.85 0.023 6.18 0.082 5.517 0.19C4.856 0.303 4.215 0.514 3.617 0.817C3.018 1.123 2.472 1.521 1.997 1.997C1.52 2.47 1.122 3.017 0.819 3.617C0.515 4.217 0.305 4.857 0.194 5.52C0.083 6.182 0.024 6.852 0.015 7.522C0.005 7.829 0.005 8.137 0 8.443V31.56C0.005 31.87 0.006 32.17 0.015 32.481C0.023 33.152 0.083 33.821 0.195 34.483C0.305 35.146 0.515 35.789 0.819 36.388C1.122 36.986 1.52 37.531 1.998 38.002C2.471 38.479 3.018 38.877 3.616 39.181C4.215 39.485 4.856 39.698 5.517 39.811C6.18 39.921 6.85 39.979 7.521 39.988C7.831 39.995 8.134 39.999 8.44 39.999C8.806 40.001 9.168 40.001 9.535 40.001H110.135C110.495 40.001 110.859 40.001 111.219 39.999C111.523 39.999 111.836 39.995 112.141 39.989C112.811 39.979 113.479 39.921 114.141 39.811C114.804 39.697 115.448 39.484 116.049 39.181C116.647 38.877 117.193 38.479 117.666 38.002C118.142 37.529 118.541 36.984 118.848 36.388C119.15 35.788 119.358 35.146 119.467 34.483C119.578 33.822 119.64 33.153 119.652 32.481C119.656 32.171 119.656 31.871 119.656 31.56C119.664 31.196 119.664 30.835 119.664 30.466V9.536C119.664 9.17 119.664 8.806 119.656 8.444C119.656 8.138 119.656 7.83 119.652 7.524C119.64 6.852 119.578 6.184 119.467 5.521C119.358 4.859 119.149 4.218 118.847 3.618C118.23 2.415 117.252 1.436 116.049 0.818C115.448 0.516 114.804 0.304 114.141 0.191C113.48 0.081 112.811 0.022 112.141 0.015C111.836 0.01 111.523 0.004 111.219 0.002C110.859 0 110.494 0 110.135 0Z" fill="#A6A6A6"/>
<path d="M8.44505 39.125C8.14005 39.125 7.84305 39.121 7.54105 39.115C6.91405 39.106 6.29005 39.052 5.67105 38.951C5.09505 38.851 4.53705 38.667 4.01505 38.403C3.49805 38.142 3.02505 37.798 2.61805 37.387C2.20405 36.98 1.85805 36.508 1.59805 35.99C1.33305 35.469 1.14905 34.91 1.05405 34.333C0.951047 33.713 0.896047 33.086 0.888047 32.458C0.881047 32.248 0.873047 31.545 0.873047 31.545V8.445C0.873047 8.445 0.882047 7.753 0.888047 7.55C0.895047 6.922 0.951047 6.297 1.05305 5.678C1.14905 5.099 1.33205 4.538 1.59705 4.016C1.85705 3.498 2.20005 3.026 2.61205 2.618C3.02205 2.206 3.49605 1.861 4.01405 1.595C4.53405 1.332 5.09205 1.149 5.66705 1.051C6.28705 0.95 6.91505 0.895 7.54305 0.887L8.44505 0.875H111.214L112.127 0.888C112.75 0.895 113.371 0.949 113.985 1.05C114.566 1.149 115.13 1.334 115.656 1.598C116.694 2.133 117.539 2.979 118.071 4.018C118.331 4.538 118.512 5.094 118.606 5.667C118.71 6.291 118.768 6.922 118.78 7.554C118.783 7.837 118.783 8.142 118.783 8.444C118.791 8.819 118.791 9.176 118.791 9.536V30.465C118.791 30.828 118.791 31.183 118.783 31.54C118.783 31.865 118.783 32.163 118.779 32.47C118.768 33.09 118.71 33.71 118.609 34.323C118.515 34.904 118.333 35.468 118.069 35.993C117.805 36.506 117.462 36.973 117.053 37.379C116.644 37.793 116.172 38.138 115.653 38.401C115.128 38.667 114.566 38.853 113.985 38.951C113.367 39.052 112.742 39.107 112.116 39.114C111.823 39.121 111.516 39.125 111.219 39.125L110.135 39.127L8.44505 39.125Z" fill="black"/>
<path d="M24.769 20.2997C24.791 18.6037 25.68 17.0367 27.125 16.1487C26.21 14.8407 24.73 14.0407 23.135 13.9907C21.455 13.8147 19.827 14.9957 18.971 14.9957C18.099 14.9957 16.781 14.0077 15.363 14.0377C13.496 14.0977 11.798 15.1337 10.89 16.7647C8.95599 20.1137 10.399 25.0347 12.251 27.7417C13.178 29.0667 14.261 30.5467 15.679 30.4947C17.066 30.4367 17.584 29.6097 19.259 29.6097C20.917 29.6097 21.403 30.4947 22.849 30.4617C24.338 30.4367 25.275 29.1297 26.169 27.7917C26.836 26.8477 27.349 25.8037 27.689 24.6997C25.92 23.9517 24.771 22.2197 24.769 20.2997ZM22.037 12.2097C22.849 11.2367 23.249 9.98473 23.152 8.71973C21.912 8.84973 20.767 9.44273 19.944 10.3797C19.132 11.3037 18.721 12.5127 18.8 13.7407C20.057 13.7537 21.25 13.1897 22.037 12.2097Z" fill="white"/>
<path d="M42.302 27.1401H37.57L36.433 30.4961H34.427L38.911 18.0781H40.994L45.477 30.4961H43.438L42.302 27.1401ZM38.06 25.5901H41.812L39.962 20.1441H39.91L38.06 25.5901ZM55.16 25.9701C55.16 28.7831 53.654 30.5901 51.381 30.5901C50.207 30.6521 49.101 30.0371 48.533 29.0071H48.49V33.4911H46.63V21.4421H48.43V22.9481H48.463C49.056 21.9241 50.163 21.3101 51.346 21.3481C53.644 21.3481 55.16 23.1641 55.16 25.9701ZM53.25 25.9701C53.25 24.1371 52.302 22.9321 50.857 22.9321C49.437 22.9321 48.482 24.1621 48.482 25.9701C48.482 27.7941 49.437 29.0161 50.857 29.0161C52.302 29.0161 53.25 27.8191 53.25 25.9701ZM65.125 25.9701C65.125 28.7831 63.619 30.5901 61.346 30.5901C60.172 30.6521 59.066 30.0371 58.498 29.0071H58.455V33.4911H56.596V21.4421H58.395V22.9481H58.429C59.022 21.9241 60.129 21.3101 61.312 21.3481C63.61 21.3481 65.125 23.1641 65.125 25.9701ZM63.215 25.9701C63.215 24.1371 62.267 22.9321 60.822 22.9321C59.402 22.9321 58.447 24.1621 58.447 25.9701C58.447 27.7941 59.402 29.0161 60.822 29.0161C62.267 29.0161 63.215 27.8191 63.215 25.9701ZM71.71 27.0361C71.848 28.2681 73.044 29.0761 74.68 29.0761C76.246 29.0761 77.373 28.2681 77.373 27.1571C77.373 26.1931 76.693 25.6171 75.083 25.2211L73.474 24.8331C71.194 24.2831 70.135 23.2161 70.135 21.4851C70.135 19.3431 72.002 17.8711 74.654 17.8711C77.278 17.8711 79.077 19.3431 79.137 21.4851H77.261C77.149 20.2461 76.125 19.4981 74.627 19.4981C73.13 19.4981 72.106 20.2551 72.106 21.3561C72.106 22.2341 72.76 22.7511 74.361 23.1461L75.729 23.4821C78.277 24.0851 79.335 25.1081 79.335 26.9251C79.335 29.2481 77.485 30.7031 74.541 30.7031C71.788 30.7031 69.928 29.2831 69.808 27.0361H71.71ZM83.346 19.3001V21.4421H85.068V22.9141H83.346V27.9051C83.346 28.6811 83.691 29.0421 84.448 29.0421C84.652 29.0381 84.856 29.0241 85.059 28.9991V30.4621C84.719 30.5251 84.373 30.5541 84.027 30.5481C82.194 30.5481 81.479 29.8591 81.479 28.1031V22.9141H80.163V21.4421H81.479V19.3001H83.346ZM86.065 25.9701C86.065 23.1211 87.743 21.3311 90.359 21.3311C92.984 21.3311 94.654 23.1211 94.654 25.9701C94.654 28.8261 92.993 30.6081 90.359 30.6081C87.726 30.6081 86.065 28.8261 86.065 25.9701ZM92.76 25.9701C92.76 24.0161 91.865 22.8621 90.359 22.8621C88.853 22.8621 87.959 24.0241 87.959 25.9701C87.959 27.9321 88.853 29.0761 90.359 29.0761C91.865 29.0761 92.76 27.9321 92.76 25.9701ZM96.186 21.4421H97.959V22.9831H98.002C98.249 21.9911 99.158 21.3091 100.179 21.3481C100.393 21.3471 100.607 21.3701 100.816 21.4171V23.1551C100.546 23.0731 100.264 23.0351 99.981 23.0431C99.435 23.0211 98.906 23.2391 98.534 23.6391C98.161 24.0391 97.983 24.5831 98.044 25.1261V30.4961H96.186V21.4421ZM109.384 27.8371C109.134 29.4801 107.534 30.6081 105.486 30.6081C102.852 30.6081 101.217 28.8441 101.217 26.0131C101.217 23.1731 102.861 21.3311 105.407 21.3311C107.913 21.3311 109.487 23.0511 109.487 25.7971V26.4341H103.093V26.5461C103.033 27.2201 103.266 27.8871 103.733 28.3781C104.198 28.8681 104.853 29.1351 105.529 29.1101C106.431 29.1951 107.281 28.6771 107.619 27.8371H109.384ZM103.102 25.1351H107.628C107.662 24.5291 107.442 23.9371 107.02 23.5011C106.599 23.0641 106.014 22.8241 105.408 22.8371C104.796 22.8331 104.209 23.0741 103.776 23.5051C103.343 23.9371 103.1 24.5241 103.102 25.1351Z" fill="white"/>
<path d="M37.8259 8.73052C38.6159 8.67352 39.3879 8.97452 39.9319 9.54852C40.4759 10.1225 40.7329 10.9105 40.6339 11.6955C40.6339 13.6015 39.6039 14.6975 37.8259 14.6975H35.6709V8.72952L37.8259 8.73052ZM36.5979 13.8535H37.7229C38.2859 13.8875 38.8349 13.6655 39.2169 13.2485C39.5989 12.8325 39.7729 12.2665 39.6899 11.7075C39.7669 11.1515 39.5899 10.5895 39.2099 10.1775C38.8289 9.76352 38.2829 9.54252 37.7229 9.57352H36.5979V13.8535ZM41.6799 12.4435C41.6029 11.6365 41.9899 10.8555 42.6799 10.4285C43.3679 10.0005 44.2399 10.0005 44.9289 10.4285C45.6179 10.8555 46.0049 11.6365 45.9279 12.4435C46.0059 13.2515 45.6199 14.0345 44.9299 14.4635C44.2399 14.8915 43.3679 14.8915 42.6779 14.4635C41.9879 14.0345 41.6019 13.2515 41.6809 12.4435H41.6799ZM45.0139 12.4435C45.0139 11.4675 44.5749 10.8965 43.8059 10.8965C43.0329 10.8965 42.5989 11.4675 42.5989 12.4435C42.5989 13.4275 43.0329 13.9935 43.8059 13.9935C44.5759 13.9935 45.0139 13.4235 45.0139 12.4435ZM51.5729 14.6975H50.6509L49.7209 11.3805H49.6499L48.7239 14.6975H47.8109L46.5689 10.1945H47.4709L48.2769 13.6305H48.3439L49.2699 10.1945H50.1219L51.0479 13.6305H51.1179L51.9209 10.1945H52.8099L51.5729 14.6975ZM53.8539 10.1945H54.7089V10.9095H54.7749C55.0059 10.3825 55.5459 10.0605 56.1189 10.1075C56.5629 10.0745 56.9979 10.2445 57.3009 10.5705C57.6039 10.8955 57.7429 11.3415 57.6779 11.7825V14.6975H56.7889V12.0055C56.7889 11.2815 56.4749 10.9215 55.8169 10.9215C55.5169 10.9075 55.2239 11.0255 55.0169 11.2455C54.8109 11.4655 54.7099 11.7635 54.7419 12.0625V14.6975H53.8539V10.1945ZM59.0939 8.43652H59.9819V14.6975H59.0939V8.43652ZM61.2179 12.4435C61.1409 11.6365 61.5279 10.8555 62.2169 10.4285C62.9059 10.0005 63.7769 10.0005 64.4669 10.4285C65.1549 10.8555 65.5429 11.6365 65.4649 12.4435C65.5439 13.2515 65.1569 14.0345 64.4679 14.4635C63.7779 14.8915 62.9049 14.8915 62.2159 14.4635C61.5259 14.0345 61.1389 13.2515 61.2179 12.4435ZM64.5509 12.4435C64.5509 11.4675 64.1119 10.8965 63.3429 10.8965C62.5699 10.8965 62.1359 11.4675 62.1359 12.4435C62.1359 13.4275 62.5699 13.9935 63.3429 13.9935C64.1129 13.9935 64.5509 13.4235 64.5509 12.4435ZM66.3999 13.4235C66.3999 12.6135 67.0039 12.1455 68.0759 12.0795L69.2959 12.0095V11.6195C69.2959 11.1445 68.9809 10.8755 68.3739 10.8755C67.8769 10.8755 67.5339 11.0575 67.4349 11.3755H66.5749C66.6649 10.6025 67.3929 10.1055 68.4149 10.1055C69.5429 10.1055 70.1799 10.6685 70.1799 11.6195V14.6965H69.3249V14.0635H69.2549C68.9639 14.5255 68.4469 14.7955 67.9019 14.7705C67.5199 14.8105 67.1379 14.6865 66.8519 14.4305C66.5659 14.1725 66.4019 13.8075 66.4009 13.4225L66.3999 13.4235ZM69.2949 13.0395V12.6625L68.1949 12.7325C67.5749 12.7745 67.2949 12.9855 67.2949 13.3825C67.2949 13.7875 67.6459 14.0225 68.1289 14.0225C68.4159 14.0525 68.7009 13.9635 68.9209 13.7785C69.1409 13.5925 69.2759 13.3275 69.2949 13.0395ZM71.3479 12.4435C71.3479 11.0205 72.0799 10.1195 73.2179 10.1195C73.7919 10.0935 74.3299 10.4005 74.5979 10.9095H74.6649V8.43652H75.5529V14.6965H74.7019V13.9865H74.6319C74.3419 14.4905 73.7979 14.7925 73.2169 14.7715C72.0719 14.7715 71.3479 13.8705 71.3479 12.4435ZM72.2659 12.4435C72.2659 13.3985 72.7159 13.9735 73.4689 13.9735C74.2189 13.9735 74.6809 13.3905 74.6809 12.4475C74.6809 11.5095 74.2129 10.9175 73.4689 10.9175C72.7209 10.9175 72.2659 11.4975 72.2659 12.4435ZM79.2299 12.4435C79.1529 11.6365 79.5399 10.8555 80.2289 10.4285C80.9179 10.0005 81.7889 10.0005 82.4789 10.4285C83.1669 10.8555 83.5539 11.6365 83.4769 12.4435C83.5559 13.2515 83.1689 14.0345 82.4799 14.4635C81.7899 14.8915 80.9169 14.8915 80.2279 14.4635C79.5379 14.0345 79.1509 13.2515 79.2299 12.4435ZM82.5629 12.4435C82.5629 11.4675 82.1249 10.8965 81.3549 10.8965C80.5829 10.8965 80.1479 11.4675 80.1479 12.4435C80.1479 13.4275 80.5829 13.9935 81.3549 13.9935C82.1249 13.9935 82.5629 13.4235 82.5629 12.4435ZM84.6699 10.1945H85.5249V10.9095H85.5909C85.8219 10.3825 86.3609 10.0605 86.9349 10.1075C87.3789 10.0745 87.8139 10.2445 88.1169 10.5705C88.4199 10.8955 88.5589 11.3415 88.4939 11.7825V14.6975H87.6049V12.0055C87.6049 11.2815 87.2909 10.9215 86.6329 10.9215C86.3329 10.9075 86.0399 11.0255 85.8329 11.2455C85.6269 11.4655 85.5259 11.7635 85.5579 12.0625V14.6975H84.6689L84.6699 10.1945ZM93.5149 9.07352V10.2145H94.4909V10.9635H93.5149V13.2785C93.5149 13.7505 93.7089 13.9575 94.1519 13.9575C94.2649 13.9575 94.3779 13.9495 94.4909 13.9365V14.6765C94.3309 14.7055 94.1689 14.7205 94.0069 14.7225C93.0189 14.7225 92.6259 14.3745 92.6259 13.5065V10.9635H91.9109V10.2145H92.6259V9.07352H93.5149ZM95.7049 8.43652H96.5849V10.9175H96.6549C96.8979 10.3875 97.4469 10.0645 98.0289 10.1115C98.4699 10.0875 98.8989 10.2615 99.1989 10.5855C99.4989 10.9105 99.6389 11.3525 99.5789 11.7905V14.6975H98.6899V12.0095C98.6899 11.2895 98.3549 10.9255 97.7269 10.9255C97.4169 10.9005 97.1129 11.0125 96.8949 11.2325C96.6759 11.4525 96.5649 11.7585 96.5929 12.0675V14.6975H95.7049V8.43652ZM104.761 13.4815C104.512 14.3315 103.691 14.8795 102.811 14.7845C102.21 14.8005 101.633 14.5515 101.232 14.1045C100.832 13.6555 100.648 13.0545 100.73 12.4595C100.65 11.8635 100.833 11.2615 101.231 10.8095C101.63 10.3595 102.204 10.1025 102.806 10.1075C104.059 10.1075 104.815 10.9635 104.815 12.3775V12.6875H101.635V12.7375C101.607 13.0715 101.721 13.4015 101.95 13.6475C102.178 13.8935 102.5 14.0315 102.834 14.0275C103.269 14.0795 103.692 13.8635 103.906 13.4815H104.761ZM101.635 12.0295H103.91C103.932 11.7235 103.825 11.4225 103.614 11.2005C103.403 10.9785 103.108 10.8555 102.801 10.8625C102.491 10.8585 102.191 10.9805 101.972 11.2005C101.752 11.4205 101.632 11.7185 101.635 12.0295Z" fill="white"/>
</g>
<defs>
<clipPath id="clip0_1124_4535">
<rect width="120" height="40" fill="white"/>
</clipPath>
</defs>
</svg>
