<svg width="61" height="60" viewBox="0 0 61 60" fill="none" xmlns="http://www.w3.org/2000/svg">
<path d="M29.8373 -0.0716753C29.7397 -0.054052 29.6433 -0.0301563 29.5488 -0.00013683C29.0278 0.116636 28.5634 0.410456 28.2348 0.831253C27.9061 1.25205 27.7336 1.77379 27.7465 2.30756V4.61525H6.97728C5.14116 4.61525 3.38025 5.34464 2.08192 6.64297C0.783593 7.9413 0.0541992 9.70221 0.0541992 11.5383L0.0541992 41.5383C0.0541992 45.3599 3.15574 48.4614 6.97728 48.4614H27.7465V49.3268L15.1973 55.6014C14.6428 55.8692 14.2173 56.3462 14.0146 56.9277C13.8118 57.5091 13.8484 58.1473 14.1161 58.7018C14.3839 59.2563 14.861 59.6817 15.4424 59.8845C16.0238 60.0872 16.662 60.0507 17.2165 59.7829L27.7465 54.5191V55.3845C27.7465 55.9965 27.9896 56.5835 28.4224 57.0163C28.8552 57.449 29.4422 57.6922 30.0542 57.6922C30.6662 57.6922 31.2532 57.449 31.686 57.0163C32.1188 56.5835 32.3619 55.9965 32.3619 55.3845V54.5191L42.8919 59.7829C43.4464 60.0507 44.0846 60.0872 44.666 59.8845C45.2474 59.6817 45.7245 59.2563 45.9923 58.7018C46.26 58.1473 46.2966 57.5091 46.0938 56.9277C45.8911 56.3462 45.4656 55.8692 44.9111 55.6014L32.3619 49.3268V48.4614H53.1311C56.9527 48.4614 60.0542 45.3599 60.0542 41.5383V11.5383C60.0542 9.70221 59.3248 7.9413 58.0265 6.64297C56.7281 5.34464 54.9672 4.61525 53.1311 4.61525H32.3619V2.30756C32.3735 1.9794 32.315 1.65253 32.1903 1.34879C32.0655 1.04506 31.8773 0.771444 31.6384 0.546237C31.3994 0.32103 31.1151 0.149414 30.8045 0.0428564C30.4939 -0.0637017 30.1642 -0.102748 29.8373 -0.0716753ZM4.66958 11.5383H55.4388V41.5383H4.66958V11.5383ZM48.2273 13.846C47.7104 13.9016 47.2273 14.1301 46.8565 14.4945L39.285 22.0683L34.0211 16.7999C33.769 16.5412 33.4597 16.3453 33.1181 16.228C32.7766 16.1106 32.4122 16.0751 32.0544 16.1243C31.6965 16.1734 31.3552 16.3059 31.0579 16.511C30.7606 16.7161 30.5156 16.9882 30.3427 17.3052L23.4911 29.2776L20.678 22.2091C20.5414 21.8441 20.3146 21.5197 20.0188 21.2661C19.7229 21.0124 19.3677 20.8378 18.9861 20.7586C18.6046 20.6793 18.2092 20.698 17.8368 20.8128C17.4644 20.9276 17.1272 21.1349 16.8565 21.4152L9.93343 28.3383C9.71523 28.5564 9.54212 28.8153 9.42398 29.1002C9.30583 29.3851 9.24497 29.6906 9.24486 29.999C9.24475 30.3075 9.3054 30.613 9.42335 30.898C9.5413 31.183 9.71423 31.442 9.93228 31.6602C10.1503 31.8784 10.4092 32.0516 10.6942 32.1697C10.9791 32.2878 11.2845 32.3487 11.593 32.3488C11.9015 32.3489 12.2069 32.2883 12.492 32.1703C12.777 32.0524 13.036 31.8794 13.2542 31.6614L17.6527 27.2629L20.9711 35.4829C21.1277 35.8952 21.3992 36.2539 21.7534 36.5167C22.1076 36.7795 22.5296 36.9352 22.9696 36.9656C23.4095 36.9959 23.849 36.8996 24.2359 36.688C24.6228 36.4763 24.9409 36.1582 25.1527 35.7714L32.8696 22.2852L37.628 27.046C37.8432 27.2686 38.1011 27.4457 38.3861 27.5666C38.6712 27.6875 38.9776 27.7498 39.2873 27.7498C39.5969 27.7498 39.9034 27.6875 40.1884 27.5666C40.4735 27.4457 40.7313 27.2686 40.9465 27.046L50.1773 17.8152C50.5418 17.4778 50.7877 17.0317 50.8784 16.5432C50.9692 16.0548 50.8998 15.5501 50.6808 15.1043C50.4617 14.6584 50.1047 14.2951 49.6626 14.0684C49.2206 13.8417 48.7172 13.7637 48.2273 13.846Z" fill="#1C7B4D"/>
</svg>
